# xmcd CD database file
#
# Track frame offsets:
#	180
#	10587
#	19524
#	28439
#	35891
#	48102
#	56951
#	66183
#	75199
#	85617
#	95725
#	104523
#
# Disc length: 1601 seconds
#
# Revision: 0
# Processed by: cddbd v1.4PL0 Copyright (c) Steve Scherf et al.
# Submitted via: Feurio! 1.63 - http://www.feurio.com
#
DISCID=92063f0c
DTITLE=Die Ruhrpottkanacken - Schürbeln, bis der Dachstuhl Knackt!
DYEAR=1900
DGENRE=
TTITLE0=Pfand
TTITLE1=Sieh Dich vor
TTITLE2=Ekelhaft
TTITLE3=Trink Karl
TTITLE4=Genitalprobleme
TTITLE5=Morgens um Halb 7
TTITLE6=Jocelyn
TTITLE7=Die Ruhrpottkanacken
TTITLE8=Graf Porno
TTITLE9=Foxy
TTITLE10=Kids vom Spilla
TTITLE11=Damit er Steht
EXTD=
EXTT0=
EXTT1=
EXTT2=
EXTT3=
EXTT4=
EXTT5=
EXTT6=
EXTT7=
EXTT8=
EXTT9=
EXTT10=
EXTT11=
PLAYORDER=
